<?xml version="1.0" encoding="utf-8"?>
<!-- Generator: Adobe Illustrator 23.0.1, SVG Export Plug-In . SVG Version: 6.00 Build 0)  -->
<svg version="1.1" id="Layer_1" xmlns="http://www.w3.org/2000/svg" xmlns:xlink="http://www.w3.org/1999/xlink" x="0px" y="0px"
	 viewBox="0 0 615 792" style="enable-background:new 0 0 615 792;" xml:space="preserve">
<style type="text/css">
	.st0{fill:#FFFFFF;}
	.st1{fill:none;}
	.st2{fill:#010101;}
	.st3{fill:#080909;}
</style>
<ellipse class="st0" cx="310.79" cy="480" rx="243.87" ry="237.33"/>
<g>
	<path class="st1" d="M578.48,396.28c0,115.9-0.01,231.79,0.05,347.69c0,2.07-0.47,2.54-2.54,2.53c-179-0.06-357.99-0.06-536.99,0
		c-2.07,0-2.54-0.47-2.53-2.53c0.05-231.98,0.05-463.95,0-695.93c0-2.07,0.47-2.54,2.53-2.53c179,0.06,357.99,0.06,536.99,0
		c2.07,0,2.54,0.47,2.54,2.53C578.47,164.12,578.48,280.2,578.48,396.28z"/>
	<path class="st2" d="M138.62,260.23c7.45-12.83,14.21-26,19.83-39.74c8.14-19.9,14.49-40.38,19.35-61.32
		c4.5-19.39,7.67-39,9.77-58.77c1.82-17.18,2.68-34.45,2.85-51.73c0.02-1.9,0.25-2.62,2.47-2.62c77.89,0.07,155.78,0.07,233.67,0.02
		c1.94,0,2.57,0.32,2.61,2.48c0.24,11.67,0.47,23.34,1.35,34.99c1.17,15.28,2.92,30.48,5.35,45.62c3.18,19.8,7.63,39.3,13.46,58.47
		c4.18,13.75,9.14,27.22,14.95,40.38c6.57,14.9,14.21,29.18,23.45,42.6c4.58,6.66,9.5,13.05,14.92,19.07
		c0.68,0.75,2.53,1.55,1.42,2.7c-1.29,1.34-1.97-0.68-2.64-1.36c-5.99-6.15-12.18-12.1-18.8-17.55
		c-9.66-7.96-19.71-15.41-30.35-22.02c-16.24-10.09-33.34-18.4-51.33-24.93c-10.1-3.67-20.4-6.6-30.81-9.1
		c-7.72-1.85-15.58-3.13-23.48-4.17c-8.17-1.08-16.36-1.63-24.56-2.25c-7.24-0.55-14.48-0.66-21.66-0.27
		c-9.17,0.5-18.34,1.24-27.5,2.48c-17.72,2.4-34.95,6.63-51.83,12.33c-13.63,4.6-26.73,10.54-39.37,17.37
		c-12.93,6.99-25.17,15.1-36.84,24.06c-0.43,0.33-0.82,0.7-1.23,1.05c-0.08,0.04-0.16,0.08-0.24,0.13c-0.94-2.93-3.39-2.8-5.72-2.71
		c-1.61,0.06-1.57-0.62-0.8-1.56C137.78,262.77,138.31,261.57,138.62,260.23z"/>
	<path class="st3" d="M138.62,260.23c1.04,2.16-1.01,3.08-2.1,4.86c1.75-0.65,3.18-0.06,4.65-0.25c2.53-0.33,1.81,1.97,2.48,3.14
		c-4.06,3.39-8.08,6.82-12.19,10.15c-5.13,4.17-9.46,9.15-14.23,13.68c-0.53,0.5-0.98,1.59-1.98,0.68c-0.89-0.8-0.01-1.33,0.43-1.8
		C124.46,281.4,131.59,270.85,138.62,260.23z"/>
	<path d="M568.06,458.43c-0.26-5.8-0.98-11.56-1.88-17.23c-1.6-10.1-3.64-20.13-6.38-30.02c-3.53-12.75-7.98-25.13-13.31-37.22
		c-4.63-10.51-9.98-20.64-16.06-30.36c-4.58-7.33-9.48-14.45-14.73-21.35c-4.7-6.18-9.56-12.23-14.88-17.82
		c-7.24-7.6-14.54-15.16-22.7-21.87c-6.94-5.7-14-11.18-21.34-16.35c-14.8-10.43-30.68-18.86-47.35-25.87
		c-11.19-4.71-22.65-8.59-34.42-11.59c-10.57-2.69-21.21-4.82-32.05-6.16c-7.82-0.96-15.64-1.82-23.49-2.02
		c-13.13-0.34-26.27-0.31-39.33,1.57c-6.75,0.97-13.59,1.48-20.24,2.9c-11.53,2.47-22.95,5.38-34.13,9.23
		c-9.9,3.41-19.64,7.24-29,11.85c-12.91,6.36-25.34,13.63-37.08,22.02c-8.78,6.28-17.29,12.94-25.14,20.31
		c-10.42,9.78-20.2,20.17-29.02,31.5c-9.22,11.86-17.44,24.34-24.58,37.51c-7.33,13.5-13.21,27.68-17.92,42.31
		c-3.27,10.15-5.76,20.48-7.86,30.96c-2.15,10.71-3.6,21.5-4.11,32.34c-0.37,7.87-1.15,15.76-0.37,23.76
		c0.78,8.01,0.83,16.09,1.73,24.14c0.74,6.61,1.66,13.21,3.02,19.66c2.48,11.78,5.68,23.39,9.65,34.82
		c5.94,17.11,13.69,33.31,22.92,48.79c8.54,14.34,18.63,27.66,29.92,39.95c10.42,11.34,21.66,21.89,33.93,31.24
		c13.83,10.54,28.57,19.68,44.2,27.3c6.03,2.94,12.24,5.52,18.48,8.04c14.53,5.86,29.52,9.91,44.83,13.11
		c12.19,2.55,24.49,4.05,36.85,4.72c11.42,0.62,22.92,0.51,34.35-0.5c2.26-0.2,4.56-0.11,6.76-0.53c5.72-1.1,11.53-1.56,17.27-2.59
		c7.1-1.29,14.16-2.75,21.14-4.54c16.52-4.24,32.43-10.24,47.74-17.71c18.25-8.91,35.46-20.22,51.24-32.98
		c8.06-6.52,15.63-13.53,22.71-20.98c14.29-15.03,26.6-31.82,37.05-49.9c7.63-13.19,14-26.93,19.15-41.22
		c6.66-18.47,11.14-37.45,13.42-57.02c1.07-9.2,1.46-18.41,1.98-27.62C569.47,474.81,568.42,466.61,568.06,458.43z M532.84,481.82
		c-9.84,16.22-19.55,32.51-29.34,48.75c-1.17,1.94-1.76,3.87-1.75,6.19c0.08,17.38,0.02,34.77,0.09,52.15
		c0.01,1.71-0.53,2.6-1.99,3.43c-16.08,9.2-32.1,18.48-48.17,27.69c-1.81,1.04-3.18,2.31-4.25,4.12
		c-8.1,13.63-16.32,27.19-24.39,40.84c-1.1,1.87-2.25,2.61-4.48,2.6c-15.63-0.11-31.27-0.05-46.91-0.08c-1.5,0-2.8,0.26-4.15,1.04
		c-18.8,10.89-37.65,21.68-56.43,32.6c-1.76,1.02-3,0.97-4.68-0.01c-18.3-10.65-36.65-21.22-54.95-31.87
		c-2.04-1.19-4.04-1.81-6.45-1.79c-15.45,0.1-30.9,0.01-46.35,0.1c-2.02,0.01-3.02-0.69-4.03-2.39
		c-8.3-14.04-16.74-28.01-25.1-42.02c-0.78-1.31-1.77-2.24-3.08-3c-16.28-9.37-32.52-18.81-48.83-28.13
		c-1.68-0.96-1.91-2.13-1.91-3.78c0.03-17.2,0-34.4,0.06-51.6c0.01-2.2-0.52-4.05-1.66-5.94c-9.81-16.24-19.53-32.53-29.34-48.77
		c-0.95-1.57-1.1-2.74-0.1-4.39c9.93-16.38,19.75-32.82,29.67-49.21c1.05-1.74,1.43-3.48,1.42-5.47
		c-0.04-17.29,0.01-34.58-0.07-51.87c-0.01-1.98,0.54-3.13,2.29-4.13c16.31-9.31,32.56-18.73,48.87-28.06
		c1.36-0.78,2.19-1.82,2.96-3.1c8.37-14,16.8-27.97,25.14-41.99c0.86-1.45,1.8-1.98,3.48-1.97c15.64,0.06,31.27,0.01,46.91,0.07
		c2.09,0.01,3.89-0.44,5.72-1.5c18.23-10.59,36.52-21.08,54.73-31.69c2.22-1.29,3.86-1.29,6.13,0.05
		c18.34,10.76,36.78,21.34,55.16,32.02c1.43,0.83,2.84,1.1,4.44,1.1c15.82-0.02,31.64,0.02,47.46-0.05
		c1.77-0.01,2.76,0.48,3.69,2.06c8.47,14.27,17.06,28.46,25.55,42.71c0.7,1.17,1.56,1.98,2.68,2.63
		c16.27,9.38,32.53,18.79,48.84,28.12c1.54,0.88,2.15,1.77,2.13,3.6c-0.12,8.83-0.05,17.66-0.05,26.49c0,8.74,0.02,17.48-0.02,26.21
		c-0.01,1.51,0.32,2.81,1.12,4.13c9.99,16.56,19.9,33.16,29.89,49.72C533.73,478.97,533.86,480.14,532.84,481.82z"/>
	<g>
		<path d="M206.53,458.92c2.48,0,4.96,0,7.44,0c-2.22-1.11-3.84-2.53-2.97-4.95c2.05-5.74,3.38-11.77,6.55-17.08
			c1.96-3.27,4.57-5.72,8.56-6.08c4.07-0.37,6.13,2.28,4.87,6.13c-1.46,4.45-2.98,8.88-4.46,13.32c-1.31,3.93-2.66,7.8-7.59,8.57
			c4.96,0,9.92,0,15.64,0c-4.18-2.05-4.43-2.59-3.22-6.19c1.63-4.87,3.34-9.71,4.94-14.59c1.82-5.54-0.48-8.09-6.14-8.38
			c-4.69-0.24-8.73,1.36-12.59,5c2.68-7.94,5.13-15.23,7.67-22.76c-3.59,0.46-6.89,0.88-10.51,1.34c2.97,1.17,3.58,2.73,2.47,6.01
			c-3.31,9.8-6.68,19.59-10.01,29.39c-1.49,4.37-2.42,9.17-8.1,10.27C201.57,458.92,204.05,458.92,206.53,458.92z"/>
		<path d="M229.69,500.82c-0.07,1.02-0.01,2.04-0.01,3.06c1.71-3.83,2.86-7.73,3.83-11.86c-14.69,0-29.12,0-43.55-0.01
			c-0.84,0-1.49-0.03-1.88,1.02c-1.35,3.65-2.85,7.25-4.28,10.87c0.18,0.18,0.36,0.36,0.55,0.54c4.33-10.24,12.7-12.42,22.59-11.76
			c-4.07,12.08-8.08,24.18-12.25,36.22c-1.63,4.7-4.42,8.36-9.96,8.83c6.99,0,13.97,0,21.19,0c-5.5-2.27-5.86-3.08-4.07-8.76
			c0.05-0.17,0.18-0.31,0.24-0.47c3.87-11.4,7.78-22.78,11.53-34.22c0.45-1.37,0.97-1.73,2.22-1.72c2.27,0.02,4.5,0.17,6.76,0.52
			C226.18,493.64,230.06,495.54,229.69,500.82z"/>
		<path d="M320.51,433.62c-1.69-1.28-3.56-2.33-5.39-3.41c-5.86-3.45-6.49-8.85-1.86-13.84c2.59-2.79,5.51-4.25,9.4-3.98
			c-8-1.7-17.54,5.62-19.45,13.99c-0.64,2.81-0.69,6,2.28,8.2c2.15,1.59,4.39,3.01,6.6,4.49c1.76,1.19,3.47,2.33,4.31,4.6
			c1.5,4.04-1.33,10-5.23,12.87c-5.2,3.81-14.2,3.93-14.85-5.88c-0.11-1.69-0.01-3.61-0.77-5.82c-2.05,4.62-3.43,8.93-4.8,13.6
			c1.76-0.94,2.99-1.54,4.66-0.68c10.23,5.33,21.05,1.05,26.7-7.75C325.91,444.08,326.12,437.86,320.51,433.62z"/>
		<path d="M140.5,467.98C140.5,467.98,140.5,467.98,140.5,467.98L140.5,467.98c0.03-0.02,0.06-0.05,0.08-0.08
			c-0.04,0.01-0.09,0.02-0.13,0.03C140.45,467.93,140.5,467.99,140.5,467.98z"/>
		<path d="M176.43,413.11c-3.49,0-6.98,0-10.47,0c-3.49,0-6.97,0-10.46,0c4.67,1.9,5.21,4.05,4.19,7.81
			c-1.4,5.14-3.41,10.05-5.07,15.08c-2.55,7.73-5.16,15.43-7.79,23.13c-1.21,3.53-3.76,6.13-6.24,8.77
			c6.39-1.2,11.65-4.2,13.96-10.53c3.93-10.8,7.46-21.75,11.13-32.64C167.52,419.26,169.33,413.78,176.43,413.11z"/>
		<path d="M359.5,531.72c0.29-0.99,0.58-2.07,0.87-3.05c2.73-9.15,6.24-18.04,9.14-27.13c1.58-4.96,4.18-8.88,10-9.41
			c-6.98,0-13.97,0-21.13,0c5.05,1.56,5.73,2.54,4.28,7.77c-2.8,10.14-6.7,19.92-10,29.9c-0.49,1.48-1.11,2.91-2.27,4.17
			c-2.02,2.19-4.45,3.25-7.26,3.73c6.97,0,13.93,0,21.34,0C359.64,536.02,358.58,534.82,359.5,531.72z"/>
		<path d="M412.63,457.27c0.72,0.94-0.56,3.42,1.92,2.69c2.65-0.79,5.48-0.17,8.04-1.3c-3.02-1.1-3.65-2.36-2.63-5.44
			c1.99-6.05,3.98-12.11,6.01-18.14c2.58-7.64,5.21-15.27,8.07-23.63c-4.07,1.83-7.94,0.39-11.42,2c3.23,0.65,4.35,2.4,3.36,5.56
			c-1.21,3.88-2.52,7.74-3.85,11.58c-0.44,1.27-0.99,2.21-2.54,0.8c-0.66-0.6-1.49-1.61-2.73-1.17c3.45,2.32,3.11,5.61,2.08,8.93
			c-1.18,3.77-2.53,7.5-3.93,11.2c-1.49,3.93-4.37,6.62-8.02,8.54C409.08,459.12,410.78,457.84,412.63,457.27z"/>
		<path d="M201.54,442.67c0-8.29-4.65-13.14-10.78-12.97c-9.16,0.25-15.93,4.84-20.3,12.63c-4.94,8.81,0.22,17.59,10.27,17.14
			c4.59-0.2,8.77-1.73,12.25-4.58C197.49,451.21,201.38,446.95,201.54,442.67z M183.25,458.34c-4.91,1.73-8.56-0.83-8.74-6.06
			c-0.02-0.55,0-1.1,0-1.65c0.66-7.99,3.86-14.79,10.7-19.05c5.36-3.33,10.38-1.29,10.72,6.38c0.25,5.72-2.41,10.61-5.87,15.06
			C188.23,455.36,186.1,457.33,183.25,458.34z"/>
		<path d="M282.7,508.59c-0.43,0-1.3-0.15-2.08,0.02c-6.56,1.49-12,4.79-16.08,10.18c-2.09,2.76-3.54,6.06-3.28,9.38
			c0.53,6.49,4.4,10.22,11.17,10.14c9.85-0.13,16.62-5.29,20.75-14.04C297.18,515.82,290.64,508.36,282.7,508.59z M282.81,531.9
			c-1.77,2.28-3.85,4.21-6.54,5.27c-5.05,2-8.93-0.71-9.04-6.21c-0.01-0.46,0-0.92,0-1.38c0.63-7.99,3.8-14.81,10.66-19.07
			c5.39-3.35,10.39-1.35,10.77,6.31C288.93,522.55,286.25,527.45,282.81,531.9z"/>
		<path d="M247.36,508.62c-8.05,0.23-14.07,4.23-18.82,10.55c-2.07,2.76-3.42,5.94-3.13,9.13c0.61,6.77,4.89,10.03,11.56,10.09
			c8.74,0.2,18.23-7.16,20.86-15.16C260.59,514.81,254.39,508.42,247.36,508.62z M246.9,531.95c-1.82,2.36-3.98,4.29-6.82,5.31
			c-5.91,2.11-8.23-1.68-8.72-6.07c-0.06-0.54-0.01-1.1-0.01-1.65c0.63-8.01,3.86-14.79,10.71-19.05c5.34-3.32,10.38-1.3,10.72,6.38
			C253.03,522.61,250.34,527.5,246.9,531.95z"/>
		<path d="M304.34,530.85c4.57-13.4,9.13-26.79,13.79-40.49c-3.59,0.41-6.94,0.79-10.3,1.16c1.92,0.73,3.52,1.76,2.8,4.05
			c-0.29,0.92-0.45,1.9-0.77,2.82c-3.45,9.76-6.78,19.57-10.05,29.4c-1.45,4.36-2.48,8.97-8.03,9.88c4.96,0,9.92,0,15.21,0
			C303.12,535.6,302.92,535.01,304.34,530.85z"/>
		<path d="M440.26,440.67c5.05,0.09,10.11,0.04,15.16,0.03c2.99,0,4.13-1.31,3.69-4.24c-0.79-5.28-5.9-8.13-11.28-6.32
			c0-0.02,0-0.04,0-0.06c-0.64,0.05-1.31-0.01-1.91,0.18c-7.85,2.56-14.34,9.14-15.88,17.93c-0.88,5.04,1.79,9.66,6.07,10.69
			c7.45,1.8,15.01-0.14,19.12-7.64c-0.76-0.05-1.12,0.02-1.7,0.79c-1.72,2.32-3.91,4.09-6.87,4.92c-4.8,1.34-9.73-1.48-10.03-6.02
			c-0.19-2.91,0.15-5.74,1.09-8.52C438.18,441.12,438.85,440.64,440.26,440.67z M447.83,430.09c0,0-0.08,0.08-0.08,0.08
			c5.13,0.16,6.92,2.42,5.98,7.56c-0.24,1.3-0.82,1.96-2.36,1.91c-4.04-0.13-8.09-0.04-12.35-0.04
			C440.74,435.18,443.99,432.36,447.83,430.09z"/>
		<path d="M357.8,469.16c0.05,1.47,1.29,1.93,2.76,1.92c2.72,0,5-1.13,6.54-3.15c6.35-8.3,12.39-16.84,18.82-25.08
			c3.51-4.5,6-10.06,12.52-12.55c-3.84,0-6.95,0-10.22,0c2.66,1.67,3.12,2.49,1.78,4.81c-3.5,6.06-8.09,11.35-12.16,17.24
			c-1.07-5.3-0.8-10.32-0.81-15.32c-0.01-4.65,0.27-5.02,5.26-6.69c-4.98,0-9.38,0-14.67,0c3.01,0.9,3.28,2.65,3.35,4.58
			c0.16,4.46,0.26,8.95,0.69,13.36c0.58,6.06,1.18,11.76-3.41,16.77c-2.17,2.37-3.12,3.02-6.08,1.9c-0.49-0.19-1.04-0.3-1.57-0.3
			C358.95,466.66,357.75,467.54,357.8,469.16z"/>
		<path d="M434.78,509.63c-2.63-1.46-5.54-1.49-8.18-0.9c-9.22,2.05-15.48,7.55-18.22,16.78c-1.1,3.69-0.27,8.94,2.01,10.54
			c4.59,3.22,9.49,2.9,14.37,0.97c-8.18,1.19-11.64-2.59-10.27-10.84c0.76-4.6,3.11-8.27,5.72-11.83c1.82-2.48,4.35-4.27,7.39-5.11
			c2.67-0.74,4.02,0.31,4.08,3.04c0.01,0.46-0.09,0.94,0.02,1.37c0.27,1.11,0.4,2.45,1.85,2.63c1.33,0.16,2.42-0.38,3.12-1.65
			C437.8,512.54,437.17,510.96,434.78,509.63z"/>
		<path d="M336.21,452.46c0.79-2.44,1.58-4.89,2.47-7.29c1.75-4.74,2.48-10.06,7.64-13.14c-1.66-0.25-2.34,0.96-3.36,1.33
			c-0.44-0.8,0.21-1.36,0.37-2.03c0.31-1.27-0.22-2.06-1.57-1.62c-2.64,0.87-5.48,0.27-8.07,1.29c2.58,1.1,3.22,2.7,2.18,5.88
			c-1.29,3.95-2.68,7.86-4,11.8c-1.46,4.37-2.41,9.13-8.05,10.06c4.95,0,9.9,0,15.2,0C335.23,456.76,334.99,456.2,336.21,452.46z"/>
		<path d="M250.18,458.73c-3.82-2.01-4.05-2.54-2.81-6.31c0.86-2.6,1.85-5.16,2.72-7.76c1.54-4.65,2.43-9.66,7.42-12.65
			c-1.68-0.21-2.38,0.96-3.39,1.34c-0.43-0.8,0.22-1.35,0.38-2.02c0.3-1.26-0.17-1.9-1.58-1.66c-2.69,0.45-5.38,0.84-8.16,1.27
			c2.69,1.16,3.33,2.77,2.29,5.93c-1.29,3.94-2.68,7.86-3.99,11.8c-1.46,4.37-2.43,9.12-8.05,10.06
			C239.94,458.73,244.88,458.73,250.18,458.73z"/>
		<path d="M379.25,531.56c0.88-2.69,1.85-5.34,2.74-8.03c1.53-4.64,2.46-9.6,7.7-12.78c-1.94,0.11-2.68,1.16-3.7,1.51
			c-0.32-0.74,0.13-1.24,0.33-1.83c0.45-1.36-0.06-2.29-1.57-1.79c-2.61,0.86-5.43,0.22-7.98,1.32c2.64,1.07,3.21,2.53,2.11,5.89
			c-1.45,4.46-2.97,8.89-4.47,13.33c-1.32,3.9-2.64,7.81-7.59,8.57c4.96,0,9.91,0,15.61,0
			C378.29,535.69,378.06,535.19,379.25,531.56z"/>
		<path d="M477.05,431.73c-1.07,0.92-2.14,1.83-3.21,2.75c0.84-1.01,0.08-2.25,0.64-3.23c0.86-1.51-0.29-1.91-1.34-1.51
			c-2.46,0.93-5.19-0.05-7.43,1.3c2.46,1.07,3.13,2.72,2.11,5.82c-1.32,4.02-2.77,8-4.1,12.02c-1.43,4.35-2.45,8.98-8.03,10.01
			c4.95,0,9.91,0,14.86,0c-2.06-1.1-3.85-2.44-2.92-4.86C470.46,446.53,471.59,438.27,477.05,431.73z"/>
		<path d="M351.75,448.69c-1.46,4.38-2.41,9.12-8.05,10.06c4.95,0,9.9,0,15.16,0c-3.75-2.02-3.99-2.57-2.77-6.26
			c1.71-5.2,3.48-10.38,5.18-15.59c1.12-3.41-0.03-5.57-3.35-6.7c-2.93-1-5.8-0.62-8.74,0.57c0.54,0,1.08-0.01,1.61,0
			c4.32,0.05,5.7,1.88,4.75,6.07C354.62,440.91,353.07,444.76,351.75,448.69z"/>
		<path d="M400.95,509.12c-2.94-1.01-5.81-0.61-8.72,0.57c0.54,0,1.08,0,1.62,0c4.32,0.04,5.64,1.83,4.74,6.07
			c-0.65,3.05-1.68,5.96-2.8,8.84c-1.97,5.1-1.96,11.58-9.89,13.07c5.8,0,10.75,0,16.03,0c-3.79-2.01-4.03-2.54-2.81-6.26
			c1.71-5.2,3.49-10.38,5.19-15.59C405.43,512.41,404.28,510.26,400.95,509.12z"/>
		<path d="M263.23,447.95c-1.6,4.41-2.17,9.93-8.39,10.81c4.95,0,9.91,0,15.17,0c-3.75-2-3.99-2.53-2.78-6.25
			c1.7-5.2,3.46-10.38,5.16-15.59c1.12-3.43,0-5.58-3.31-6.72c-2.94-1.01-5.81-0.59-8.79,0.57c0.72,0,1.44-0.01,2.16,0
			c3.71,0.07,5.11,2.12,4.34,5.79C265.98,440.49,264.58,444.23,263.23,447.95z"/>
		<path d="M399.62,451.46c0.19-8.53,4.2-14.93,10.72-19.94c1.72-1.32,4-1.45,6.19-1.35c-2.7-1.23-5.47-0.61-7.97,0.34
			c-8.21,3.11-13.24,9.18-14.87,17.76c-0.62,3.25-0.49,6.93,2.63,9.13c3.03,2.13,6.51,2.9,10.16,1.59
			C401.19,459.42,399.52,456.03,399.62,451.46z"/>
		<path d="M316.47,530.78c-1.71,0.78-2.52,2.18-3.17,3.75c-0.74,1.77,0.16,3.43,2.02,3.85c0.67,0.15,1.44-0.27,2.17,0.42
			c-2.31,4.01-5.62,6.87-9.84,8.74c6.95-1.59,11.58-5.76,13.94-12.45c0.55-1.55,0.55-3.2-0.61-4.28
			C319.69,529.62,318.06,530.05,316.47,530.78z"/>
		<path d="M441.26,530.1c-2.46,0.05-5.2,3.05-5.2,5.62c0,1.83,0.88,2.65,2.02,2.68c3.19-0.09,6.59-3.41,6.22-5.8
			C444.08,531.16,443.01,530.07,441.26,530.1z"/>
		<path d="M135.86,464.03c0.16-1.56-0.39-2.65-2.1-2.92c-2.07-0.32-3.05,1.27-3.8,2.57c-0.73,1.25-0.17,2.72,1.3,3.44
			c2.9,1.42,5.93,1.54,9.02,0.84C137.83,467.8,135.49,467.52,135.86,464.03z"/>
		<path d="M140.28,467.97c0.07,0.01,0.15,0.01,0.22,0.02l-0.05-0.05C140.39,467.95,140.34,467.96,140.28,467.97z"/>
		<path d="M328.15,425.83c1.42-4.16,2.81-8.32,4.21-12.48c-2.66,3.54-5.12-0.07-7.63-0.13c2.33,2.96,2.33,2.96,2.71,13.04
			C327.86,426.01,328.1,425.95,328.15,425.83z"/>
		<path d="M485.5,429.73c-2.33-0.34-4.6,0.17-6.65,1.41c1.8,0.05,3.44,0.28,4.03,2.13c0.57,1.78,1.91,1.54,3.09,1.25
			c1.31-0.32,2.02-1.36,1.99-2.78C487.93,430.12,486.53,429.87,485.5,429.73z"/>
		<path d="M430.06,532.28c-1.18,1.2-2.17,2.2-3.63,3.68C428.4,534.96,429.51,534.08,430.06,532.28z"/>
		<path d="M406.87,458.95c0.04-0.02,0.08-0.05,0.12-0.07c-0.06-0.01-0.12,0-0.18-0.01L406.87,458.95z"/>
		<path d="M416.8,430.18c-0.09,0-0.18-0.01-0.27-0.01c0.07,0.03,0.13,0.05,0.2,0.08C416.75,430.22,416.78,430.21,416.8,430.18z"/>
		<path d="M406.48,458.98c0.13-0.01,0.26-0.01,0.39-0.03c-0.02-0.03-0.05-0.05-0.07-0.07C406.69,458.92,406.58,458.94,406.48,458.98
			z"/>
	</g>
</g>
</svg>
